<mxfile host="app.diagrams.net" modified="2023-04-12T10:31:58.788Z" agent="Mozilla/5.0 (Macintosh; Intel Mac OS X 10_15_7) AppleWebKit/537.36 (KHTML, like Gecko) Chrome/111.0.0.0 Safari/537.36" etag="lZf-bIM8V1ez7AUrIApB" version="21.1.6" type="device">
  <diagram name="Page-1" id="lc0A-jWaueUSnuEJe4q4">
    <mxGraphModel dx="910" dy="1037" grid="0" gridSize="10" guides="1" tooltips="1" connect="1" arrows="1" fold="1" page="0" pageScale="1" pageWidth="827" pageHeight="1169" math="0" shadow="0">
      <root>
        <mxCell id="0" />
        <mxCell id="1" parent="0" />
        <mxCell id="tLqj4zHfLtUS-R2Ee-3c-1" value="" style="rounded=0;whiteSpace=wrap;html=1;fontSize=16;" vertex="1" parent="1">
          <mxGeometry x="-28" y="-64" width="120" height="60" as="geometry" />
        </mxCell>
        <mxCell id="tLqj4zHfLtUS-R2Ee-3c-2" value="" style="rounded=0;whiteSpace=wrap;html=1;fontSize=16;" vertex="1" parent="1">
          <mxGeometry x="-28" y="-4" width="120" height="60" as="geometry" />
        </mxCell>
      </root>
    </mxGraphModel>
  </diagram>
</mxfile>
